Patient4_TMGait_0pt4_01_right_01_EMG.mot
version=1
nRows=33
nColumns=33
inDegrees=no
endheader
time	1LAddLong	2LGlutMax	3LGlutMed	4LIliopsoas	5LSemiMemb	6LBicFemLong	7LRecFem	8LVastMed	9LVastLat	10LGasMed	11LTibAnt	12lTibPost	13LPeroneusLong	14LSol	15LExtDigLong	16LFlexDigLong	17RAddLong	18RGlutMax	19RGlutMed	20RIliopsoas	21RSemiMemb	22RBicFemLong	23RRecFem	24RVastMed	25RVastLat	26RGasMed	27RTibAnt	28RTibPost	29RPeroneusLong	30RSol	31RExtDigLong	32RFlexDigLong
0.81	0.017548	-0.007782	0.13443	-0.007935	-0.022583	0.00412	0.048676	0.007782	-0.068054	-0.057678	-0.072327	-0.00946	0.006409	-0.12573	-0.36255	-0.010376	-0.010223	-0.098877	-0.000916	0.019226	0.039825	0.19638	0.031586	-0.074921	-0.025482	-0.012207	-0.28656	-0.004425	0.01358	-0.081787	0.005646	-0.009003
0.811	0.021515	0.007935	0.090485	0.012207	0.04837	-0.001831	0.016632	0.014038	-0.13519	-0.061493	-0.086975	-0.002747	0.066223	-0.076294	-0.27527	-0.017242	0.022125	-0.097809	-0.13107	-0.033264	0.0177	0.21668	0.036163	-0.06485	-0.023956	-0.00885	-0.33386	-0.005341	0.11383	-0.03418	0.002899	-0.016785
0.812	0.014648	0.002289	0.091553	0.012512	0.070648	0.03006	0.017395	0.014191	-0.096893	-0.0354	-0.075684	-0.004883	0.090637	-0.11231	-0.19547	-0.00824	0.037689	-0.050201	-0.16113	-0.011902	0.016937	0.22675	0.056305	-0.034943	-0.015564	-0.000458	0.40924	-0.002594	-0.12207	-0.030975	0.013123	-0.014954
0.813	0.023956	0.011292	0.093994	-0.007324	0.041656	-0.007935	-0.027924	0.007782	-0.05249	-0.038605	-0.019836	-0.005646	0.083923	-0.112	-0.018005	0.007629	0.045013	-0.096741	0.26093	-0.047455	0.014191	0.23392	0.051575	-0.077667	-0.014648	-0.009766	0.88608	-0.006409	-0.52933	0.008087	0.000458	-0.016785
0.814	0.009003	-0.011139	0.051575	-0.027924	0.03006	-0.009918	-0.010376	0.016937	0.044861	-0.016632	-0.018005	0.003967	0.051422	-0.068817	0.10284	-0.13611	0.04715	-0.11734	0.30945	-0.09613	0.047455	0.25986	0.01709	-0.051575	0.003357	-0.01358	0.61783	-0.00473	-0.054016	0.01297	0.001373	-0.005493
0.815	0.007324	-0.027466	0.02182	-0.017395	0.011139	0.013123	-0.038147	0.020905	0.11017	0.008087	-0.015106	0.003052	0.011902	-0.050964	0.13031	0.026245	0.053406	-0.10101	0.22934	-0.095367	0.018768	0.25192	0.009918	-0.089874	-0.006256	-0.010681	0.56854	-0.001373	0.19989	0.00824	0.000916	-0.010681
0.816	0.009308	-0.036469	-0.003357	0.016174	0.019073	0.047607	-0.081635	0.021667	0.070496	0.046082	0.01297	-0.000305	-0.010223	-0.07431	0.094604	0.13168	0.013123	-0.10056	0.52734	-0.072937	0.018005	0.25696	0.065765	-0.10742	-0.024567	-0.012512	0.12283	0	-0.14664	-0.004272	0.000916	-0.003662
0.817	0.006866	-0.036163	-0.046997	0.027313	0.023804	0.043945	-0.079193	0.02533	0.02243	0.04837	0.003204	-0.027618	-0.025635	-0.086365	0.075073	-0.080261	-0.005646	-0.11032	0.10773	-0.036011	0.006256	0.24277	0.060883	-0.076447	-0.019073	-0.013428	-0.041962	0	-0.37293	-0.008545	-0.000153	0.000916
0.818	0.006714	-0.016479	-0.028229	0.023499	0.011597	0.036926	-0.074158	0.018158	0.049591	0.04303	0.009003	0.10986	-0.0383	-0.27252	0.075073	0.02594	0.004883	-0.10407	0.13138	0.014801	0.01236	0.23987	0.045624	-0.11856	-0.030518	-0.010529	0.07782	0	-0.065918	-0.016479	0.002441	0.002441
0.819	0.007324	0.00885	0.043945	-0.011292	0.010071	0.002594	-0.045624	-0.004425	0.04425	0.031738	0.010986	0.11734	-0.028839	-0.32532	0.074158	0.016632	0.011749	-0.059357	0.24872	0.12222	0.046692	0.24078	0.065155	-0.045929	-0.021973	0.001984	-0.21393	-0.002136	0.063782	-0.079956	-0.000458	-0.003815
0.82	0.007477	0.008087	0.03418	-0.00885	0.012207	-0.005951	0.013885	0.036011	-0.004425	0.027924	-0.001678	-0.046844	-0.048981	-0.10223	0.071259	0.006866	-0.034332	-0.013733	0.30533	0.10086	0.027466	0.24674	0.056152	-0.032196	-0.030518	0.003967	-0.94055	0	0.12054	-0.054321	0.00061	-0.002747
0.821	0.00824	-0.005646	0.031433	0.000153	0.011902	0.013733	0.074005	-0.000458	-0.065765	0.019531	0.008087	-0.052643	-0.030212	0.068512	0.061493	-0.002899	-0.051117	-0.051422	0.34561	0.19379	0.00824	0.2504	0.061798	-0.059052	-0.031738	-0.010834	-0.70526	-0.002289	-0.031281	-0.046234	-0.006104	0.001068
0.822	0.006256	0.011444	0.10483	-0.00824	0.014038	-0.001068	0.15549	-0.009308	-0.076447	-0.003052	-0.006256	-0.019684	0.094299	0.20615	0.056458	-0.011139	-0.063782	-0.03891	0.022125	0.19867	-0.08316	0.25055	-0.004883	-0.031738	-0.023041	-0.010223	0.02121	-0.002289	-0.0737	-0.043945	-0.004272	-0.003662
0.823	0.00351	0.018158	0.080719	-0.006409	0.002747	0.00946	0.13016	0.001373	0.042572	-0.00061	0.002594	0.006714	0.10544	0.18845	0.049896	-0.00885	-0.056458	-0.087891	-0.025177	0.10223	-0.045013	0.25192	0.061035	-0.050659	-0.034943	-0.001831	0.030975	-0.002747	0.012817	-0.14343	-0.003815	-0.004578
0.824	0.001373	-0.002747	0.083923	0.003204	0.009308	-0.014343	0.07019	0.010681	0.074768	-0.0177	0.011444	0.029907	0.15869	0.055389	0.028076	-0.003815	-0.036774	-0.049286	0.15472	-0.025177	0.001831	0.20523	0.005951	-0.074921	-0.02655	0.001678	0.076447	-0.008545	-0.060577	-0.073853	-0.003357	-0.009613
0.825	0.005646	0.037384	0.014038	-0.010071	0.002747	0.017853	0.005493	0.015564	0.023956	-0.016785	0.013733	-0.008087	0.081635	-0.014496	0.032043	-0.00061	-0.008087	-0.025787	-0.014343	-0.036926	-0.010986	0.1239	0.04715	-0.096588	-0.032501	-0.012817	0.25909	-0.009613	-0.13138	0.038147	0	-0.011444
0.826	0.014648	0.006409	0.018616	0.016479	-0.018463	-0.012665	-0.021973	0.006561	0.005188	-0.00946	0.01236	-0.010376	-0.11795	-0.01358	0.029602	-0.010834	0.019226	-0.008698	0.014954	0.012512	-0.058441	0.12161	0.041199	-0.069275	-0.036011	-0.014496	0.16068	-0.001984	0.12436	0.004883	-0.005646	-0.006714
0.827	0.009308	0.043488	0.10193	0.01236	-0.035706	-0.002747	0.059509	0.004578	0.012817	-0.016937	0.017548	-0.019073	-0.031586	0.099792	0.030518	-0.001068	0.028381	-0.000458	0.37445	-0.026855	-0.15289	0.096436	0.044403	-0.047913	-0.0354	-0.015717	-0.005341	-0.003662	0.4599	-0.019836	-0.001221	-0.015869
0.828	0.005341	0.035553	0.11978	0.020294	-0.021362	-0.006256	0.17487	0.002899	0.021057	-0.025787	0.013123	-0.019989	-0.026855	0.045776	0.0177	-0.007629	0.048065	-0.019226	0.34576	0.03479	-0.14313	0.11429	0.031891	-0.021057	-0.032959	-0.021057	0.04776	-0.000153	0.31006	0.063477	-0.003662	-0.019226
0.829	0.011139	0.040436	0.078583	0.006714	0.060272	-0.017548	0.18066	0.00351	-0.030975	-0.028229	0.0177	-0.004425	-0.099945	0.002899	0.00351	-0.001373	0.057678	-0.036316	0.00412	0.03891	-0.032959	0.18066	0.043793	-0.033112	-0.007172	-0.021973	-0.023499	-0.002289	0.31189	0.11734	-0.002289	-0.018921
0.83	0.009613	0.032654	0.014343	0.017395	0.062866	-0.002899	0.064697	0.038147	-0.036163	-0.062256	0.020447	-0.015717	-0.10101	0.045471	0.009155	-0.003967	0.024719	-0.000458	0.079651	-0.052643	0.26428	0.2504	0.00412	-0.019379	-0.00473	-0.020447	-0.025024	0.000763	0.040741	0.069122	-0.004272	-0.016937
0.831	0.012512	0.062408	-0.001068	0.0177	0.027466	-0.01709	-0.006561	0.033875	-0.028687	-0.11032	0.023651	-0.009155	-0.16876	0.025482	0.01297	0.004425	0.028076	-0.012817	0.094757	-0.051575	0.12146	0.27863	0.063171	-0.039978	-0.015717	-0.00351	0.0914	-0.002441	-0.67322	0.072784	-0.003052	-0.009766
0.832	0.007629	0.04303	-0.09201	0.006714	0.028076	-0.014496	0.004425	0.030823	-0.030212	-0.16296	0.014954	-0.012665	-0.18097	0.028687	0.032501	-0.041046	0.030212	0.004272	0.008087	0.020905	0.019684	0.26703	0.064392	-0.063934	-0.00351	-0.00885	0.073853	-0.002594	-0.66895	0.023956	-0.004272	0.005493
0.833	0.011597	0.04303	-0.014038	-0.010376	0.023499	-0.015869	0.009918	0.007629	-0.089569	-0.22125	0.005035	-0.063782	-0.13138	0.021973	0.038147	-0.00885	0.032654	0.027618	0.015564	0.047913	-0.026245	0.26566	0.053101	-0.052185	-0.001221	-0.010834	0.032501	-0.001678	-0.22003	0.032501	-0.004883	0.003815
0.834	0.013123	0.10498	0.090485	-0.005646	0.017242	-0.034027	0.054474	-0.002136	-0.10284	-0.25467	-0.003204	0.081787	-0.03479	0.080872	0.032196	0.049438	0.026093	0.003357	0.34653	-0.043182	-0.030823	0.25864	0.052185	-0.069885	0.008545	-0.013733	0.038452	-0.001068	-0.037231	0.056763	0.009155	0.005493
0.835	0.009613	0.07309	0.1445	-0.009613	-0.009155	-0.024872	0.042877	-0.001526	-0.095215	-0.077515	0.012207	0.19257	-0.002136	0.12543	0.007172	-0.1326	0.007477	-0.022278	0.11124	-0.099182	-0.06012	0.28183	0.023956	-0.11322	-0.007477	-0.010071	0.024414	-0.000916	0.029602	0.03479	-0.00351	0.010071
0.836	-0.000153	0.047913	0.1326	-0.00824	-0.045166	-0.014038	-0.000916	-0.007477	-0.02182	0.18036	0.013885	-0.080414	-0.013885	0.1207	-0.007782	-0.041962	-0.002289	-0.015564	0.061188	-0.061035	0.021362	0.28961	0.056458	-0.081329	-0.007935	-0.020599	-0.005646	-0.00473	0.038147	0.067444	-0.004883	0.014954
0.837	0.019531	0.014801	-0.038605	0.006866	-0.07782	0.023956	0.004272	0.009308	0.013733	0.34775	0.006256	-0.002289	0.074463	0.3067	-0.00946	0.20813	-0.022125	-0.047607	0.011292	-0.044403	0.086365	0.25559	0.038605	-0.045319	-0.018311	-0.023956	0.006104	-0.003052	0.00473	0.085144	-0.003662	0.016479
0.838	0.013123	0.02594	-0.021515	0.009155	-0.081482	0.043488	0.04715	0.02243	0.1236	0.44449	0.004272	-0.083618	0.14877	0.074768	0.009003	0.090027	0.004272	-0.069275	0.009003	0.014191	0.072174	0.22553	0.047302	-0.058899	0.009918	-0.021057	0.14603	-0.000458	-0.023499	0.050049	-0.003052	0.014954
0.839	0.023193	0.090179	0.03952	0.021362	0.047455	0.011749	0.040741	0.003052	0.098267	0.4155	0.007324	-0.17334	0.20126	0.066986	0.012817	-0.090027	0.009766	-0.045929	0.14725	-0.13672	0.05661	0.22537	0.009613	-0.10223	-0.013733	-0.018768	0.086365	-0.003204	0.17273	0.017548	-0.002899	0.016785
0.84	0.018921	0.07843	0.13428	0.014954	0.1152	0.02594	0.071259	0.005493	0.088043	0.23148	0.015106	0.044556	0.27634	-0.015259	-0.005035	-0.073242	0.009155	0.037537	-0.23789	-0.2626	-0.072174	0.26962	-0.01236	-0.081635	0.014496	-0.019226	0.024872	-0.002594	-0.023041	0.021362	-0.00061	0.02182
0.841	0.01709	0.063782	0.10559	0.004883	0.031128	0.029297	0.13107	0.006104	0.15091	0.080566	0.007172	0.44983	0.15411	-0.020294	-0.009003	-0.00412	0.012817	0.009308	-0.31601	-0.22995	-0.092163	0.25482	-0.027924	-0.093994	-0.012665	-0.018616	0.017395	0	-0.062103	0.025787	-0.003052	0.023041
0.842	0.011139	0.080566	0.1445	0.012207	0.015259	-0.012207	0.11154	0.00473	0.06424	0.040436	0.009308	-0.18036	0.10605	0.1265	0.010071	-0.01236	0.021667	0.008392	-0.21103	-0.10239	-0.044098	0.22079	0.00946	-0.066376	-0.013275	-0.019531	0.065613	0.001831	0.044098	0.015106	-0.004578	0.022888
